<?xml version="1.0" encoding="UTF-8"?><svg xmlns="http://www.w3.org/2000/svg" style="display: none;">
  <symbol id="beibei_logo" viewBox="0 0 620.08 615.8">
    <defs>
      <style>.cls-1{fill-rule:evenodd;}</style>
    </defs>
    <g>
      <path class="cls-1" d="M254.5,368.88h181.14c34.35,0,62.48,28.12,62.48,62.48s-28.12,62.48-62.48,62.48h-253.31l-70.39,121.97h323.7c101.43,0,184.44-83.01,184.44-184.44,0-47.36-18.1-90.71-47.73-123.49,29.64-32.78,47.73-76.13,47.73-123.49,0-61.34-30.34-115.9-76.73-149.49,6.34,8.88,11.22,18.37,14.74,28.28,7.37,20.54,8.94,42.59,5.8,64.05-3.14,21.24-11,41.99-22.54,60.04-21.73,33.97-56.41,58.41-97.26,59.06-2.76.38-5.58.6-8.45.6h-110.75l-70.39,121.97h0ZM3.47,493.88L201.72,150.47h140.83L73.91,615.8h0L3.52,493.83l-.05.05ZM70.44,121.91h352.52c34.35,0,62.48,28.12,62.48,62.48,0,9.86-2.33,19.18-6.45,27.53,13.28-8.83,24.71-20.86,33.65-34.84,10.08-15.77,16.96-33.92,19.72-52.56,2.76-18.53,1.46-37.44-4.82-54.89C512.03,26.49,467.77,0,422.91,0H0l70.39,121.97.05-.06Z"/>
    </g>
  </symbol>
</svg>